<svg height="163" width="590.2" xmlns="http://www.w3.org/2000/svg"><path d="m700.995 460.165c0 19.9 15.2 36.1 33.9 36.1s35.4-16.2 35.4-36.1c0-13.8-9-20.1-16.6-20.1 2.6 4.7 3.8 14.3 2.4 20.4-3.1 14.3-12.9 19.8-21.2 19.8-14.6 0-26.4-12.5-26.4-28.1 0-14.8 13.6-25.9 27.5-26.9l-1.1-1.3c-18.7.1-33.9 16.3-33.9 36.2m-207.84-34.645-25.4 44.9h-.3v-44.9h-16.4v88.7h16.4v-40.5h.3l25.4 40.5h16.8l-27.8-41 29.3-47.7zm58.975 59.187c-5.3 1.8-11.1 1.5-14.7-.5v-58.7h-15.7v65.8c7.2 3.5 16 5.4 33.5 4.9zm40.387-60.607c-18.6 0-26.9 8.1-26.9 23.5v47.5h15.7v-48.4c0-6.6 3.6-11.7 11.7-11.7 4.5 0 7.7.8 10.4 2.3v57.8h15.7v-65.4c-5.7-3.2-14.5-5.6-26.6-5.6m81.92 61.384c-2.1 1.2-4.8 1.5-8.1 1.5-12.3 0-17.3-10.1-17.3-27.5 0-16.9 4.9-25.5 16.5-25.5 3.6 0 6.7.9 8.9 2.2zm-13.3-89.1c-9.9 0-18.7 1.9-23.7 4.9l4.4 10.3c4-2.2 10.2-4.1 16.6-4.1 11.6 0 16 6.3 16 15.6v4.4c-2.7-1.5-7.1-2.6-13-2.6-16.6 0-28 12.9-28 33.9 0 22.6 11.2 37.5 33.7 37.5 10.2 0 18.2-2.2 22.6-5v-66.8c-.1-18.6-11.3-28.1-28.6-28.1m148.165 29.136h-15l-22.7 69.5h16.8l12.2-44.9c1.4-5 1.7-9.5 1.7-9.5h.3s.4 4.4 1.8 9.5l12.5 44.9h14.7zm66.06 38.04c-14.8-1.8-24-5-24-17.7 0-9 5.4-12.9 14.6-12.9 3.6 0 7.1.8 9.4 1.9zm-10.4-39.3c-19 0-28.4 7.7-28.4 21.1 0 18.3 17.7 23.6 38.8 25.7v3.7c0 9-5.7 11.5-13.8 11.5-6.7 0-13.2-2.2-17.4-4.3l-3.6 9c4.5 2.2 12.9 5.3 23.9 5.3 14.3.1 25.6-6 25.6-23.9v-43.1c-5.5-3-14.3-5-25.1-5m42.538 102.44h15.7v-101.2h-15.7z" fill="#002d57" transform="matrix(1.25 0 0 -1.25 -563.9 658.44)"/></svg>
